<svg width="24" height="24" viewBox="0 0 24 24" fill="none" xmlns="http://www.w3.org/2000/svg">
<path d="M20 9.99999L20.7071 10.7071L21.4142 9.99999L20.7071 9.29288L20 9.99999ZM2.99998 18C2.99998 18.5523 3.44768 19 3.99998 19C4.55228 19 4.99998 18.5523 4.99998 18H2.99998ZM15.7071 15.7071L20.7071 10.7071L19.2929 9.29288L14.2929 14.2929L15.7071 15.7071ZM20.7071 9.29288L15.7071 4.29288L14.2929 5.7071L19.2929 10.7071L20.7071 9.29288ZM20 8.99999H9.99997V11H20V8.99999ZM2.99998 16V18H4.99998V16H2.99998ZM9.99997 8.99999C6.13397 8.99999 2.99998 12.134 2.99998 16H4.99998C4.99998 13.2386 7.23857 11 9.99997 11V8.99999Z" fill="#33363F"/>
</svg>
