<svg fill="#000000" version="1.1" id="Capa_1" xmlns="http://www.w3.org/2000/svg" xmlns:xlink="http://www.w3.org/1999/xlink" viewBox="0 0 31.859 31.859" xml:space="preserve"><g id="SVGRepo_bgCarrier" stroke-width="0"></g><g id="SVGRepo_tracerCarrier" stroke-linecap="round" stroke-linejoin="round"></g><g id="SVGRepo_iconCarrier"> <g> <path d="M31.859,14.206c0-0.031-0.004-0.052-0.008-0.083c-0.002-0.059-0.006-0.092-0.006-0.092h-0.021 c-0.264-0.774-2.071-1.467-4.846-1.973l4.33-6.953c0.566-0.912,0.35-2.106-0.502-2.759l-0.588-0.45 c-0.817-0.625-1.969-0.563-2.711,0.148l-9.613,9.194c-0.644-0.016-1.298-0.023-1.962-0.023c-8.448,0-15.359,1.242-15.894,2.814 H0.015c0,0-0.003,0.032-0.005,0.09C0.004,14.151,0,14.178,0,14.21c0,0.017,0.002,0.031,0.003,0.048C0.002,14.32,0,14.375,0,14.408 c0,8.798,7.132,15.985,15.929,15.985c8.797,0,15.929-7.217,15.929-16.015c0-0.03-0.001-0.079-0.003-0.13 C31.857,14.236,31.859,14.222,31.859,14.206z M26.654,4.334c0.419,0,0.759,0.34,0.759,0.758c0,0.419-0.339,0.758-0.759,0.758 c-0.418,0-0.758-0.339-0.758-0.758C25.896,4.674,26.236,4.334,26.654,4.334z M24.596,6.085c0.233-0.234,0.614-0.234,0.849,0.002 c0.233,0.235,0.233,0.615-0.001,0.849l-6.842,6.825c-0.118,0.118-0.271,0.175-0.424,0.175c-0.154,0-0.309-0.058-0.426-0.176 c-0.234-0.234-0.234-0.615,0.001-0.849L24.596,6.085z M15.93,17.218c-7.257,0-13.14-1.019-13.14-2.276 c0-1.256,5.883-2.275,13.14-2.275c0.157,0,0.312,0,0.468,0.001l-3.179,3.041c0,0,5.97,0.622,11.601-0.184l1.263-2.027 c1.866,0.393,2.987,0.896,2.987,1.444C29.07,16.199,23.188,17.218,15.93,17.218z"></path> </g> </g></svg>