<?xml version="1.0" encoding="UTF-8"?>
<!DOCTYPE svg PUBLIC "-//W3C//DTD SVG 1.1//EN" "http://www.w3.org/Graphics/SVG/1.1/DTD/svg11.dtd">
<svg xmlns="http://www.w3.org/2000/svg" version="1.1" width="512px" height="512px" style="shape-rendering:geometricPrecision; text-rendering:geometricPrecision; image-rendering:optimizeQuality; fill-rule:evenodd; clip-rule:evenodd" xmlns:xlink="http://www.w3.org/1999/xlink">
<g><path style="opacity:0.928" fill="#000000" d="M 248.5,-0.5 C 253.167,-0.5 257.833,-0.5 262.5,-0.5C 276.271,4.99572 283.104,15.3291 283,30.5C 284.431,33.9269 286.598,36.7602 289.5,39C 324.182,47.3365 354.515,63.5032 380.5,87.5C 401.571,81.7839 415.738,89.1173 423,109.5C 424.939,119.675 422.772,128.841 416.5,137C 433.42,170.785 438.754,206.118 432.5,243C 427.238,245.465 423.071,244.299 420,239.5C 420.957,215.401 418.29,191.734 412,168.5C 409.656,161.3 406.822,154.3 403.5,147.5C 379.033,151.108 364.699,140.775 360.5,116.5C 361.673,109.506 363.506,102.839 366,96.5C 342.689,75.4268 315.523,61.5934 284.5,55C 271.478,47.8093 264.978,36.6426 265,21.5C 262.081,15.9752 257.581,14.1419 251.5,16C 249.714,16.7845 248.214,17.9512 247,19.5C 245.333,26.1549 243.667,32.8215 242,39.5C 239.45,45.1029 235.617,49.6029 230.5,53C 217.027,57.2687 203.694,61.9354 190.5,67C 185.754,95.7143 169.088,107.048 140.5,101C 133.127,108.704 126.127,116.704 119.5,125C 108.84,126.846 105.34,122.68 109,112.5C 114.574,104.522 120.741,97.0219 127.5,90C 116.963,72.6996 118.63,56.6996 132.5,42C 153.046,29.377 170.713,32.5437 185.5,51.5C 195.851,47.078 206.518,43.578 217.5,41C 221.342,39.3321 224.509,36.8321 227,33.5C 228.43,28.2552 229.43,22.9219 230,17.5C 233.441,8.5567 239.608,2.5567 248.5,-0.5 Z M 150.5,50.5 C 163.411,49.7395 171.077,55.7395 173.5,68.5C 169.363,85.4018 159.363,90.2351 143.5,83C 134.543,73.9695 134.21,64.6362 142.5,55C 145.099,53.205 147.766,51.705 150.5,50.5 Z M 387.5,101.5 C 401.461,100.295 407.961,106.628 407,120.5C 402.24,131.624 394.407,134.458 383.5,129C 376.989,122.749 375.823,115.582 380,107.5C 382.114,104.879 384.614,102.879 387.5,101.5 Z"/></g>
<g><path style="opacity:0.924" fill="#000000" d="M 403.5,-0.5 C 407.167,-0.5 410.833,-0.5 414.5,-0.5C 439.422,6.65975 448.922,22.9931 443,48.5C 433.695,67.9013 418.528,75.0679 397.5,70C 378.613,62.0668 370.78,47.9001 374,27.5C 378.23,12.0996 388.063,2.76629 403.5,-0.5 Z M 405.5,15.5 C 419.258,15.2582 427.258,21.9248 429.5,35.5C 427.117,49.724 418.783,56.224 404.5,55C 390.578,49.3214 386.412,39.4881 392,25.5C 395.404,20.5615 399.904,17.2281 405.5,15.5 Z"/></g>
<g><path style="opacity:0.915" fill="#000000" d="M 66.5,27.5 C 71.6966,27.5979 76.0299,29.5979 79.5,33.5C 82.0391,30.4524 85.2058,28.4524 89,27.5C 93.845,28.345 96.6784,31.1783 97.5,36C 96.3875,39.7245 94.3875,42.8911 91.5,45.5C 94.5193,48.2026 96.5193,51.5359 97.5,55.5C 96.1347,61.5083 92.4681,64.0083 86.5,63C 84.0232,61.3573 81.6898,59.524 79.5,57.5C 77.6841,58.8149 76.0175,60.3149 74.5,62C 64.8462,65.0121 60.6795,61.5121 62,51.5C 64.0176,49.6499 65.8509,47.6499 67.5,45.5C 65.8509,43.3501 64.0176,41.3501 62,39.5C 60.3087,34.1311 61.8087,30.1311 66.5,27.5 Z"/></g>
<g><path style="opacity:0.916" fill="#000000" d="M 443.5,81.5 C 446.794,81.259 449.794,82.0924 452.5,84C 454.35,86.0176 456.35,87.8509 458.5,89.5C 461.354,86.8116 464.354,84.3116 467.5,82C 475.142,80.6438 478.642,83.8105 478,91.5C 476.106,95.2357 473.606,98.5691 470.5,101.5C 473.577,104.409 476.077,107.742 478,111.5C 478.488,119.669 474.654,122.836 466.5,121C 463.984,118.317 461.317,115.817 458.5,113.5C 455.646,116.188 452.646,118.688 449.5,121C 440.836,122 437.336,118.166 439,109.5C 441.683,106.984 444.183,104.317 446.5,101.5C 444.183,98.6826 441.683,96.0159 439,93.5C 437.309,88.1311 438.809,84.1311 443.5,81.5 Z"/></g>
<g><path style="opacity:0.934" fill="#000000" d="M 265.5,511.5 C 258.167,511.5 250.833,511.5 243.5,511.5C 238.077,509.852 232.744,507.685 227.5,505C 223.405,497.73 225.239,492.896 233,490.5C 255.669,500.916 274.669,496.249 290,476.5C 294.784,468.455 296.784,459.788 296,450.5C 268.726,448.514 241.226,447.847 213.5,448.5C 213.126,456.351 214.126,464.018 216.5,471.5C 216.135,476.368 213.469,479.034 208.5,479.5C 204.915,479.372 202.415,477.705 201,474.5C 198.088,466.074 196.922,457.408 197.5,448.5C 146.166,448.667 94.8323,448.5 43.5,448C 31.2305,444.369 26.3972,436.202 29,423.5C 30.4696,418.757 32.1363,414.091 34,409.5C 39.5872,399.32 45.9205,389.654 53,380.5C 65.5382,359.551 72.8715,336.885 75,312.5C 75.0686,273.147 75.7353,233.813 77,194.5C 79.1763,177.127 83.843,160.46 91,144.5C 98.1616,140.554 102.995,142.387 105.5,150C 99.4976,165.007 95.3309,180.507 93,196.5C 91.7291,235.478 91.0624,274.478 91,313.5C 89.8337,330.338 86.0004,346.505 79.5,362C 196.833,362.667 314.167,362.667 431.5,362C 426.054,349.384 422.554,336.218 421,322.5C 419.47,304.862 419.137,287.196 420,269.5C 424.3,264.554 428.967,264.221 434,268.5C 435.301,283.074 435.967,297.74 436,312.5C 438.122,333.991 444.122,354.325 454,373.5C 462,386.167 470,398.833 478,411.5C 481.869,419.097 483.202,427.097 482,435.5C 479.648,442.517 474.815,446.684 467.5,448C 415.834,448.5 364.168,448.667 312.5,448.5C 312.547,481.466 296.88,502.466 265.5,511.5 Z M 72.5,378.5 C 194.5,378.333 316.5,378.5 438.5,379C 444.711,389.926 451.544,400.426 459,410.5C 462.475,416.282 464.975,422.449 466.5,429C 466.415,430.107 466.081,431.107 465.5,432C 325.5,432.667 185.5,432.667 45.5,432C 44.4238,430.274 44.2571,428.441 45,426.5C 46.7834,420.933 49.1167,415.599 52,410.5C 59.5924,400.314 66.4258,389.647 72.5,378.5 Z"/></g>
<g><path style="opacity:0.844" fill="#000000" d="M 208.5,215.5 C 216.658,214.823 220.158,218.49 219,226.5C 214.486,232.747 209.486,233.08 204,227.5C 202.474,222.239 203.974,218.239 208.5,215.5 Z"/></g>
<g><path style="opacity:0.865" fill="#000000" d="M 296.5,215.5 C 306.272,216.05 309.105,220.717 305,229.5C 299.994,232.643 295.661,231.976 292,227.5C 290.309,222.131 291.809,218.131 296.5,215.5 Z"/></g>
<g><path style="opacity:0.909" fill="#000000" d="M 246.5,245.5 C 257.269,244.193 267.269,246.36 276.5,252C 281.451,255.554 282.618,260.054 280,265.5C 278.023,266.905 275.857,267.905 273.5,268.5C 269.56,267.196 265.893,265.363 262.5,263C 256.848,261.064 251.182,261.064 245.5,263C 242.22,265.287 238.72,267.12 235,268.5C 225.267,264.835 224.1,259.335 231.5,252C 236.367,249.226 241.367,247.059 246.5,245.5 Z"/></g>
</svg>
