<svg width="76" height="89" viewBox="0 0 76 89" fill="none" xmlns="http://www.w3.org/2000/svg">
<path d="M60.77 87.23C53.37 87.23 47.35 81.21 47.35 73.81C47.35 66.41 53.37 60.39 60.77 60.39C68.17 60.39 74.19 66.41 74.19 73.81C74.19 81.21 68.17 87.23 60.77 87.23ZM45.62 74.78H3.64999C3.09999 74.78 2.57999 74.53 2.22999 74.11C1.87999 73.68 1.73999 73.13 1.84999 72.59L3.45999 64.62C4.48999 59.53 8.63999 55.64 13.78 54.93L20.91 53.95C21.07 53.93 21.24 53.89 21.4 53.84C23.02 56.13 25.36 57.67 28.19 58.3C29.14 58.51 30.11 58.62 31.09 58.62C31.67 58.62 32.1 58.58 32.32 58.56C32.54 58.59 32.96 58.62 33.55 58.62C34.53 58.62 35.5 58.51 36.45 58.3C39.28 57.67 41.62 56.13 43.24 53.84C43.4 53.89 43.56 53.93 43.73 53.95L50.86 54.93C53.72 55.32 56.33 56.71 58.26 58.84C51.01 60.06 45.6 66.42 45.6 73.82C45.6 74.14 45.61 74.46 45.63 74.79L45.62 74.78ZM32.46 56.78C32.46 56.78 32.46 56.78 32.45 56.78H32.43C32.41 56.78 32.39 56.78 32.38 56.78C32.36 56.78 32.33 56.78 32.32 56.78H32.3C32.27 56.78 32.24 56.78 32.21 56.78C32.14 56.78 30.53 57 28.56 56.56C26.13 56.01 24.21 54.74 22.85 52.78C23.18 52.31 23.36 51.75 23.36 51.19V48.33C26.16 50.03 29.18 50.89 32.35 50.89C35.52 50.89 38.54 50.03 41.34 48.33V51.18C41.34 51.75 41.52 52.3 41.85 52.77C40.49 54.73 38.57 56 36.14 56.55C34.22 56.99 32.67 56.8 32.49 56.77L32.46 56.78ZM15.11 34.41C14.98 33.99 14.58 33.74 14.15 33.79C14.08 33.79 14 33.8 13.93 33.8C12.26 33.8 10.79 31.16 10.79 28.15C10.79 25.74 11.71 23.54 12.99 22.78L15.08 26.75C15.23 27.04 15.53 27.22 15.86 27.22C15.89 27.22 15.93 27.22 15.96 27.22C16.32 27.18 16.62 26.92 16.71 26.57L19.03 17.67C19.3 16.62 20.36 15.94 21.43 16.13C24.81 16.72 29.44 17.43 32.31 17.43C32.31 17.43 32.31 17.43 32.32 17.43C35.19 17.43 39.82 16.72 43.19 16.13C44.26 15.94 45.32 16.62 45.59 17.67L47.91 26.57C48 26.92 48.3 27.18 48.66 27.22C49.03 27.26 49.38 27.07 49.54 26.75L51.63 22.77C52.92 23.53 53.84 25.73 53.84 28.14C53.84 31.15 52.37 33.79 50.7 33.79C50.63 33.79 50.55 33.79 50.48 33.77C50.05 33.71 49.64 33.97 49.52 34.39C48.2 38.69 45.89 42.36 42.83 45C42.46 45.32 42.07 45.63 41.69 45.91C41.67 45.92 41.65 45.94 41.64 45.94C38.83 48 35.6 49.08 32.31 49.08C28.52 49.08 24.89 47.67 21.79 44.99C18.73 42.34 16.41 38.67 15.1 34.38L15.11 34.41ZM19.01 8.13001C22.61 4.67001 27.34 2.76001 32.32 2.76001C37.3 2.76001 42.03 4.67001 45.63 8.13001C49.14 11.51 51.22 16.01 51.5 20.84C51.47 20.84 51.44 20.83 51.41 20.82C51.15 20.77 50.88 20.83 50.67 21.01C50.65 21.03 50.63 21.05 50.6 21.07C50.58 21.09 50.57 21.11 50.55 21.12C50.55 21.12 50.55 21.13 50.54 21.13C50.52 21.15 50.51 21.17 50.49 21.19C50.49 21.19 50.49 21.19 50.49 21.2C50.48 21.22 50.47 21.24 50.45 21.26L49.06 23.91L47.31 17.21C46.8 15.27 44.86 14.03 42.89 14.37C40.18 14.85 35.2 15.64 32.32 15.64C29.43 15.64 24.46 14.84 21.75 14.37C19.78 14.02 17.84 15.27 17.33 17.21L15.58 23.91L14.19 21.27C14.19 21.27 14.19 21.27 14.19 21.26C14.19 21.24 14.17 21.23 14.16 21.21C14.16 21.21 14.16 21.19 14.15 21.19C14.15 21.18 14.13 21.16 14.12 21.14C14.12 21.14 14.11 21.12 14.1 21.12C14.1 21.12 14.08 21.1 14.07 21.09C14.07 21.08 14.05 21.07 14.04 21.06C14.04 21.06 14.03 21.05 14.01 21.04C14 21.03 13.98 21.02 13.97 21H13.95C13.95 21 13.92 20.96 13.9 20.95C13.9 20.95 13.89 20.95 13.87 20.93C13.85 20.93 13.84 20.91 13.82 20.9C13.81 20.9 13.8 20.89 13.79 20.89L13.69 21.11L13.78 20.89C13.78 20.89 13.76 20.88 13.75 20.87C13.74 20.87 13.72 20.86 13.7 20.85C13.7 20.85 13.68 20.85 13.67 20.85C13.65 20.85 13.63 20.85 13.61 20.83H13.59C13.57 20.83 13.56 20.83 13.53 20.83C13.53 20.83 13.51 20.83 13.5 20.83C13.49 20.83 13.47 20.83 13.45 20.83C13.43 20.83 13.41 20.83 13.38 20.83C13.36 20.83 13.34 20.83 13.32 20.83H13.29C13.29 20.83 13.25 20.83 13.24 20.84C13.24 20.84 13.23 20.84 13.22 20.84C13.19 20.84 13.16 20.85 13.12 20.86C13.4 16.03 15.48 11.53 18.99 8.15001L19.01 8.13001ZM60.78 58.62C60.64 58.62 60.49 58.62 60.34 58.62C60.31 58.54 60.27 58.46 60.21 58.39C57.95 55.51 54.72 53.66 51.1 53.16L43.97 52.18C43.47 52.11 43.09 51.68 43.09 51.17V47.1C43.4 46.86 43.71 46.61 44.01 46.35C47.16 43.62 49.59 39.89 51.03 35.55C52.28 35.44 53.43 34.65 54.28 33.31C55.15 31.94 55.63 30.11 55.63 28.15C55.63 25.51 54.76 23.15 53.31 21.82C53.23 10.32 43.84 0.980011 32.32 0.980011C20.8 0.980011 11.4 10.34 11.33 21.85C9.87999 23.19 9.01999 25.54 9.01999 28.17C9.01999 30.13 9.49999 31.96 10.37 33.33C11.22 34.67 12.37 35.46 13.62 35.57C15.06 39.91 17.49 43.64 20.64 46.37C20.94 46.63 21.25 46.88 21.56 47.12V51.19C21.56 51.7 21.18 52.13 20.68 52.2L13.55 53.18C7.65999 53.99 2.90999 58.45 1.72999 64.27L0.109988 72.24C-0.110012 73.3 0.159989 74.4 0.849989 75.24C1.53999 76.08 2.54999 76.56 3.63999 76.56H45.83C46.46 79.98 48.26 83.1 50.92 85.37C53.67 87.71 57.16 89.01 60.77 89.01C69.14 89.01 75.96 82.2 75.96 73.82C75.96 65.44 69.15 58.63 60.77 58.63L60.78 58.62Z" fill="black"/>
<path d="M67.78 66.98C67.44 66.64 66.87 66.64 66.53 66.98L60.94 72.57L55.35 66.98C55.01 66.64 54.44 66.64 54.1 66.98C53.76 67.32 53.76 67.89 54.1 68.23L59.69 73.82L54.1 79.41C53.76 79.75 53.76 80.32 54.1 80.66C54.27 80.83 54.49 80.92 54.72 80.92C54.95 80.92 55.18 80.83 55.34 80.66L60.93 75.07L66.52 80.66C66.69 80.83 66.91 80.92 67.14 80.92C67.37 80.92 67.6 80.83 67.77 80.66C68.11 80.32 68.11 79.75 67.77 79.41L62.18 73.82L67.77 68.23C68.11 67.89 68.11 67.32 67.77 66.98H67.78Z" fill="black"/>
</svg>
