<?xml version="1.0" encoding="UTF-8"?>
<!DOCTYPE svg PUBLIC "-//W3C//DTD SVG 1.1//EN" "http://www.w3.org/Graphics/SVG/1.1/DTD/svg11.dtd">
<svg xmlns="http://www.w3.org/2000/svg" version="1.1" width="586px" height="481px" style="shape-rendering:geometricPrecision; text-rendering:geometricPrecision; image-rendering:optimizeQuality; fill-rule:evenodd; clip-rule:evenodd" xmlns:xlink="http://www.w3.org/1999/xlink">
<g><path style="opacity:0.999" fill="#020202" d="M 250.5,111.5 C 251.502,115.67 253.002,119.67 255,123.5C 255.18,121.512 255.014,119.512 254.5,117.5C 258.07,124.866 261.07,132.533 263.5,140.5C 261.54,137.823 260.04,134.823 259,131.5C 259.273,137.046 261.44,141.713 265.5,145.5C 265.511,147.017 266.177,148.184 267.5,149C 273.167,152.5 278.833,156 284.5,159.5C 288.631,163.112 292.297,167.112 295.5,171.5C 295.167,170.167 294.833,168.833 294.5,167.5C 296.636,169.812 298.636,172.312 300.5,175C 306.213,176.594 308.046,180.094 306,185.5C 305.329,186.252 304.496,186.586 303.5,186.5C 267.669,187.664 231.669,187.831 195.5,187C 192.26,183.891 191.926,180.558 194.5,177C 196.025,175.991 197.692,175.491 199.5,175.5C 199.082,176.222 198.416,176.722 197.5,177C 199.112,177.72 200.612,177.554 202,176.5C 205.062,170.77 208.896,165.603 213.5,161C 212.906,160.536 212.239,160.369 211.5,160.5C 212.262,158.738 213.596,157.738 215.5,157.5C 214.031,159.105 214.365,159.605 216.5,159C 222.612,155.221 228.445,151.055 234,146.5C 235.667,143.833 237.333,141.167 239,138.5C 242.185,129.079 246.018,120.079 250.5,111.5 Z"/></g>
<g><path style="opacity:0.482" fill="#6c6c6c" d="M 254.5,117.5 C 255.014,119.512 255.18,121.512 255,123.5C 253.002,119.67 251.502,115.67 250.5,111.5C 251.966,112.798 253.299,114.798 254.5,117.5 Z"/></g>
<g><path style="opacity:0.996" fill="#8a8a8a" d="M 247.5,145.5 C 247.666,141.486 247.499,137.486 247,133.5C 245.961,134.71 244.794,135.71 243.5,136.5C 244.65,131.547 246.484,126.88 249,122.5C 249.33,130.354 248.83,138.021 247.5,145.5 Z"/></g>
<g><path style="opacity:0.996" fill="#a7a7a7" d="M 247.5,145.5 C 244.393,147.347 241.06,147.68 237.5,146.5C 240.043,143.402 242.043,140.069 243.5,136.5C 244.794,135.71 245.961,134.71 247,133.5C 247.499,137.486 247.666,141.486 247.5,145.5 Z"/></g>
<g><path style="opacity:0.486" fill="#4e4e4e" d="M 263.5,140.5 C 264.906,140.973 265.573,141.973 265.5,143.5C 265.5,144.167 265.5,144.833 265.5,145.5C 261.44,141.713 259.273,137.046 259,131.5C 260.04,134.823 261.54,137.823 263.5,140.5 Z"/></g>
<g><path style="opacity:0.969" fill="#1c1c1c" d="M 254.5,117.5 C 253.299,114.798 251.966,112.798 250.5,111.5C 246.018,120.079 242.185,129.079 239,138.5C 237.333,141.167 235.667,143.833 234,146.5C 228.445,151.055 222.612,155.221 216.5,159C 214.365,159.605 214.031,159.105 215.5,157.5C 220.1,154.188 224.766,150.855 229.5,147.5C 231.906,145.017 234.073,142.35 236,139.5C 240.128,129.617 243.961,119.617 247.5,109.5C 249.098,107.027 250.598,107.027 252,109.5C 253.341,112.022 254.174,114.689 254.5,117.5 Z"/></g>
<g><path style="opacity:0.063" fill="#222222" d="M 265.5,143.5 C 271.775,149.31 278.775,154.144 286.5,158C 289.777,160.766 292.443,163.933 294.5,167.5C 294.833,168.833 295.167,170.167 295.5,171.5C 292.297,167.112 288.631,163.112 284.5,159.5C 278.833,156 273.167,152.5 267.5,149C 266.177,148.184 265.511,147.017 265.5,145.5C 265.5,144.833 265.5,144.167 265.5,143.5 Z"/></g>
<g><path style="opacity:0.999" fill="#a1a1a1" d="M 262.5,158.5 C 272.253,158.457 280.42,162.123 287,169.5C 287.667,170.833 287.667,172.167 287,173.5C 277.836,175.43 270.169,172.763 264,165.5C 262.798,163.323 262.298,160.989 262.5,158.5 Z"/></g>
<g><path style="opacity:0.376" fill="#212121" d="M 211.5,160.5 C 212.239,160.369 212.906,160.536 213.5,161C 208.896,165.603 205.062,170.77 202,176.5C 200.612,177.554 199.112,177.72 197.5,177C 198.416,176.722 199.082,176.222 199.5,175.5C 202.771,169.898 206.771,164.898 211.5,160.5 Z"/></g>
<g><path style="opacity:0.965" fill="#6d6d6d" d="M 295.5,171.5 C 297.416,172.665 298.249,174.332 298,176.5C 296.628,175.09 295.795,173.423 295.5,171.5 Z"/></g>
<g><path style="opacity:0.996" fill="#353535" d="M 302.5,184.5 C 267.5,185.167 232.5,185.833 197.5,186.5C 194.746,184.947 193.913,182.614 195,179.5C 195.273,181.101 195.773,182.601 196.5,184C 231.832,184.5 267.165,184.667 302.5,184.5 Z"/></g>
<g><path style="opacity:0.879" fill="#c6c6c6" d="M 303.5,186.5 C 268.167,186.5 232.833,186.5 197.5,186.5C 232.5,185.833 267.5,185.167 302.5,184.5C 303.558,183.4 304.392,182.066 305,180.5C 305.409,182.695 304.909,184.695 303.5,186.5 Z"/></g>
<g><path style="opacity:0.012" fill="#000000" d="M 331.5,191.5 C 334.665,190.964 337.331,191.797 339.5,194C 337.205,196.987 334.205,197.987 330.5,197C 332.428,195.319 332.761,193.486 331.5,191.5 Z"/></g>
<g><path style="opacity:0.977" fill="#030303" d="M 360.5,209.5 C 356.999,210.8 353.333,211.966 349.5,213C 360.148,211.271 370.815,209.271 381.5,207C 390.185,206.164 398.852,205.164 407.5,204C 403.848,203.501 400.182,203.335 396.5,203.5C 410.169,200.861 423.836,200.861 437.5,203.5C 428.502,202.867 419.502,202.7 410.5,203C 426.383,203.388 442.05,205.388 457.5,209C 460.698,209.848 463.531,211.348 466,213.5C 466.494,215.134 466.66,216.801 466.5,218.5C 466.389,219.117 466.056,219.617 465.5,220C 459.099,220.256 452.765,219.589 446.5,218C 426.688,214.991 408.688,219.158 392.5,230.5C 386.581,234.083 381.248,238.416 376.5,243.5C 373.467,245.016 370.8,247.016 368.5,249.5C 361.99,253.253 355.656,257.253 349.5,261.5C 346.911,261.461 344.911,262.461 343.5,264.5C 315.97,276.216 287.303,283.549 257.5,286.5C 254.102,286.18 250.768,286.513 247.5,287.5C 247.709,288.086 248.043,288.586 248.5,289C 260.661,291.818 272.995,293.151 285.5,293C 286.066,293.995 286.733,294.828 287.5,295.5C 292.037,305.372 299.037,313.039 308.5,318.5C 308.703,320.39 308.037,321.89 306.5,323C 301.36,325.269 296.027,326.935 290.5,328C 264.768,331.629 239.101,331.295 213.5,327C 209.659,326.124 205.993,324.791 202.5,323C 200.963,321.89 200.297,320.39 200.5,318.5C 212.534,310.791 220.867,300.124 225.5,286.5C 226.404,285.791 226.737,284.791 226.5,283.5C 217.88,283.262 209.546,281.595 201.5,278.5C 200.486,277.326 199.153,276.66 197.5,276.5C 197.027,275.094 196.027,274.427 194.5,274.5C 184.725,266.279 177.391,256.279 172.5,244.5C 170.977,238.428 169.143,232.428 167,226.5C 166.623,225.058 165.79,224.058 164.5,223.5C 162.833,219.833 160.167,217.167 156.5,215.5C 155.251,213.864 153.584,212.697 151.5,212C 143.363,208.486 135.029,207.819 126.5,210C 117.738,215.625 115.072,223.458 118.5,233.5C 120.381,239.382 124.381,242.715 130.5,243.5C 135.582,244.881 140.582,244.381 145.5,242C 143.575,242.135 141.575,242.302 139.5,242.5C 145.258,238.86 151.592,237.694 158.5,239C 160.324,239.66 161.657,240.827 162.5,242.5C 161.833,242.5 161.167,242.5 160.5,242.5C 165.786,248.669 165.786,254.835 160.5,261C 154.092,264.614 148.092,264.114 142.5,259.5C 143.673,261.504 145.34,263.004 147.5,264C 152.353,264.882 157.019,264.382 161.5,262.5C 157.159,266.599 152.159,267.432 146.5,265C 143.443,262.277 140.11,259.944 136.5,258C 129.503,256.585 122.836,254.252 116.5,251C 113.261,249.264 110.927,246.764 109.5,243.5C 111.573,245.58 113.907,247.246 116.5,248.5C 113.805,245.474 111.138,242.474 108.5,239.5C 107.097,234.609 106.43,229.609 106.5,224.5C 106.355,206.468 115.355,196.301 133.5,194C 131.866,193.506 130.199,193.34 128.5,193.5C 131.986,192.467 135.653,191.633 139.5,191C 200.537,190.019 261.537,190.352 322.5,192C 304.073,201.047 285.74,210.38 267.5,220C 267.167,220.333 266.833,220.667 266.5,221C 271.464,226.815 272.798,233.149 270.5,240C 265.5,241.833 260.5,243.667 255.5,245.5C 249.969,243.622 244.302,243.122 238.5,244C 231.664,245.058 224.998,246.724 218.5,249C 218.833,249.333 219.167,249.667 219.5,250C 251.075,251.642 282.575,253.475 314,255.5C 310.967,246.744 307.3,238.077 303,229.5C 302.316,228.216 302.483,227.049 303.5,226C 322.016,218.788 341.016,213.288 360.5,209.5 Z"/></g>
<g><path style="opacity:0.316" fill="#2e2e2d" d="M 301.5,199.5 C 295.663,202.91 289.329,204.91 282.5,205.5C 288.4,202.436 294.733,200.436 301.5,199.5 Z"/></g>
<g><path style="opacity:0.969" fill="#282828" d="M 396.5,203.5 C 400.182,203.335 403.848,203.501 407.5,204C 398.852,205.164 390.185,206.164 381.5,207C 370.815,209.271 360.148,211.271 349.5,213C 353.333,211.966 356.999,210.8 360.5,209.5C 372.124,206.007 384.124,204.007 396.5,203.5 Z"/></g>
<g><path style="opacity:0.061" fill="#222222" d="M 437.5,203.5 C 447.276,203.777 456.609,205.944 465.5,210C 469.125,212.206 470.292,215.373 469,219.5C 466.487,223.212 462.987,224.378 458.5,223C 453.336,221.957 448.336,220.79 443.5,219.5C 449.799,219.615 455.966,220.615 462,222.5C 463.627,222.375 465.127,221.875 466.5,221C 467.774,220.023 467.774,219.189 466.5,218.5C 466.66,216.801 466.494,215.134 466,213.5C 463.531,211.348 460.698,209.848 457.5,209C 442.05,205.388 426.383,203.388 410.5,203C 419.502,202.7 428.502,202.867 437.5,203.5 Z"/></g>
<g><path style="opacity:0.118" fill="#1a1a1a" d="M 128.5,193.5 C 130.199,193.34 131.866,193.506 133.5,194C 115.355,196.301 106.355,206.468 106.5,224.5C 105.429,228.678 105.429,233.011 106.5,237.5C 105.778,237.082 105.278,236.416 105,235.5C 103.094,227.494 103.094,219.494 105,211.5C 109.387,201.051 117.22,195.051 128.5,193.5 Z"/></g>
<g><path style="opacity:0.804" fill="#9a9a9a" d="M 301.5,199.5 C 294.733,200.436 288.4,202.436 282.5,205.5C 275.486,207.894 268.486,210.394 261.5,213C 260.657,214.787 260.49,216.62 261,218.5C 258.806,216.611 258.306,214.444 259.5,212C 275.974,205.925 292.308,199.592 308.5,193C 307.833,192.667 307.167,192.333 306.5,192C 308.902,191.186 311.235,191.353 313.5,192.5C 313.333,192.833 313.167,193.167 313,193.5C 309.111,195.692 305.278,197.692 301.5,199.5 Z"/></g>
<g><path style="opacity:0.039" fill="#070707" d="M 141.5,211.5 C 146.837,211.613 151.837,212.946 156.5,215.5C 157.5,216.833 158.5,218.167 159.5,219.5C 153.939,215.717 147.939,213.05 141.5,211.5 Z"/></g>
<g><path style="opacity:0.671" fill="#919191" d="M 156.5,215.5 C 151.837,212.946 146.837,211.613 141.5,211.5C 139.696,210.838 137.696,210.505 135.5,210.5C 132.186,210.343 129.186,211.009 126.5,212.5C 123.572,213.591 121.406,215.591 120,218.5C 119.501,223.155 119.334,227.821 119.5,232.5C 119.5,233.167 119.167,233.5 118.5,233.5C 115.072,223.458 117.738,215.625 126.5,210C 135.029,207.819 143.363,208.486 151.5,212C 153.584,212.697 155.251,213.864 156.5,215.5 Z"/></g>
<g><path style="opacity:0.054" fill="#050505" d="M 141.5,211.5 C 136.463,211.413 131.463,211.746 126.5,212.5C 129.186,211.009 132.186,210.343 135.5,210.5C 137.696,210.505 139.696,210.838 141.5,211.5 Z"/></g>
<g><path style="opacity:0.051" fill="#080808" d="M 126.5,212.5 C 118.5,221.833 118.5,231.167 126.5,240.5C 122.77,239.032 120.437,236.365 119.5,232.5C 119.334,227.821 119.501,223.155 120,218.5C 121.406,215.591 123.572,213.591 126.5,212.5 Z"/></g>
<g><path style="opacity:0.71" fill="#9f9f9f" d="M 466.5,218.5 C 467.774,219.189 467.774,220.023 466.5,221C 465.127,221.875 463.627,222.375 462,222.5C 455.966,220.615 449.799,219.615 443.5,219.5C 429.098,217.273 415.432,219.606 402.5,226.5C 399.167,227.833 395.833,229.167 392.5,230.5C 408.688,219.158 426.688,214.991 446.5,218C 452.765,219.589 459.099,220.256 465.5,220C 466.056,219.617 466.389,219.117 466.5,218.5 Z"/></g>
<g><path style="opacity:0.502" fill="#545454" d="M 156.5,215.5 C 160.167,217.167 162.833,219.833 164.5,223.5C 163.5,222.833 162.5,222.167 161.5,221.5C 160.5,221.167 159.833,220.5 159.5,219.5C 158.5,218.167 157.5,216.833 156.5,215.5 Z"/></g>
<g><path style="opacity:0.021" fill="#0a0a0a" d="M 443.5,219.5 C 429.347,219.137 415.68,221.47 402.5,226.5C 415.432,219.606 429.098,217.273 443.5,219.5 Z"/></g>
<g><path style="opacity:0.588" fill="#535353" d="M 164.5,223.5 C 165.79,224.058 166.623,225.058 167,226.5C 169.143,232.428 170.977,238.428 172.5,244.5C 169.462,237.731 166.796,230.731 164.5,223.5 Z"/></g>
<g><path style="opacity:0.009" fill="#000000" d="M 280.5,226.5 C 281.482,227.141 282.482,227.807 283.5,228.5C 284.962,232.593 287.295,236.093 290.5,239C 287.812,241.908 284.812,242.241 281.5,240C 282.728,239.221 283.728,238.221 284.5,237C 282.283,233.849 280.949,230.349 280.5,226.5 Z"/></g>
<g><path style="opacity:0.025" fill="#0a0a0a" d="M 402.5,226.5 C 398.342,229.414 394.009,232.081 389.5,234.5C 390.5,233.167 391.5,231.833 392.5,230.5C 395.833,229.167 399.167,227.833 402.5,226.5 Z"/></g>
<g><path style="opacity:0.831" fill="#4d4d4d" d="M 106.5,224.5 C 106.43,229.609 107.097,234.609 108.5,239.5C 107.833,238.833 107.167,238.167 106.5,237.5C 105.429,233.011 105.429,228.678 106.5,224.5 Z"/></g>
<g><path style="opacity:0.553" fill="#797979" d="M 305.5,226.5 C 307.765,226.441 308.098,227.274 306.5,229C 307.791,231.05 308.291,233.217 308,235.5C 305.859,232.639 305.025,229.639 305.5,226.5 Z"/></g>
<g><path style="opacity:0.049" fill="#050505" d="M 161.5,221.5 C 162.5,222.167 163.5,222.833 164.5,223.5C 166.796,230.731 169.462,237.731 172.5,244.5C 172.472,246.582 173.139,248.416 174.5,250C 174.272,250.399 173.938,250.565 173.5,250.5C 169.511,240.876 165.511,231.209 161.5,221.5 Z"/></g>
<g><path style="opacity:0.745" fill="#8d8d8d" d="M 392.5,230.5 C 391.5,231.833 390.5,233.167 389.5,234.5C 386.911,235.419 384.911,237.086 383.5,239.5C 381.251,240.08 379.585,241.413 378.5,243.5C 377.833,243.5 377.167,243.5 376.5,243.5C 381.248,238.416 386.581,234.083 392.5,230.5 Z"/></g>
<g><path style="opacity:0.008" fill="#040404" d="M 389.5,234.5 C 388.089,236.914 386.089,238.581 383.5,239.5C 384.911,237.086 386.911,235.419 389.5,234.5 Z"/></g>
<g><path style="opacity:0.749" fill="#9d9d9c" d="M 204.5,249.5 C 203.833,249.5 203.5,249.167 203.5,248.5C 222.513,244.164 241.513,239.664 260.5,235C 262.5,234.333 264.5,234.333 266.5,235C 245.941,240.279 225.274,245.112 204.5,249.5 Z"/></g>
<g><path style="opacity:0.922" fill="#5e5e5e" d="M 119.5,232.5 C 120.437,236.365 122.77,239.032 126.5,240.5C 128.463,241.531 129.797,242.531 130.5,243.5C 124.381,242.715 120.381,239.382 118.5,233.5C 119.167,233.5 119.5,233.167 119.5,232.5 Z"/></g>
<g><path style="opacity:0.024" fill="#060606" d="M 106.5,237.5 C 107.167,238.167 107.833,238.833 108.5,239.5C 108.833,240.833 109.167,242.167 109.5,243.5C 107.461,242.089 106.461,240.089 106.5,237.5 Z"/></g>
<g><path style="opacity:0.98" fill="#424242" d="M 160.5,242.5 C 156.675,241.019 152.675,240.185 148.5,240C 151.5,239.333 154.5,239.333 157.5,240C 158.942,240.377 159.942,241.21 160.5,242.5 Z"/></g>
<g><path style="opacity:0.604" fill="#696969" d="M 317.5,256.5 C 317.167,256.5 316.833,256.5 316.5,256.5C 307.026,231.914 307.693,231.581 318.5,255.5C 318.376,256.107 318.043,256.44 317.5,256.5 Z"/></g>
<g><path style="opacity:0.045" fill="#040404" d="M 383.5,239.5 C 382.415,241.587 380.749,242.92 378.5,243.5C 379.585,241.413 381.251,240.08 383.5,239.5 Z"/></g>
<g><path style="opacity:0.631" fill="#626262" d="M 108.5,239.5 C 111.138,242.474 113.805,245.474 116.5,248.5C 113.907,247.246 111.573,245.58 109.5,243.5C 109.167,242.167 108.833,240.833 108.5,239.5 Z"/></g>
<g><path style="opacity:0.98" fill="#292929" d="M 126.5,240.5 C 130.704,241.91 135.037,242.577 139.5,242.5C 141.575,242.302 143.575,242.135 145.5,242C 140.582,244.381 135.582,244.881 130.5,243.5C 129.797,242.531 128.463,241.531 126.5,240.5 Z"/></g>
<g><path style="opacity:1" fill="#a0a0a0" d="M 149.5,243.5 C 155.189,242.059 158.522,244.059 159.5,249.5C 156.351,249.789 153.351,249.289 150.5,248C 149.62,246.644 149.286,245.144 149.5,243.5 Z"/></g>
<g><path style="opacity:0.78" fill="#969696" d="M 376.5,243.5 C 374.557,246.471 371.891,248.471 368.5,249.5C 370.8,247.016 373.467,245.016 376.5,243.5 Z"/></g>
<g><path style="opacity:0.03" fill="#0c0c0c" d="M 376.5,243.5 C 377.167,243.5 377.833,243.5 378.5,243.5C 375.224,247.471 371.224,250.471 366.5,252.5C 367.167,251.5 367.833,250.5 368.5,249.5C 371.891,248.471 374.557,246.471 376.5,243.5 Z"/></g>
<g><path style="opacity:0.627" fill="#808080" d="M 116.5,248.5 C 119.485,249.326 122.151,250.659 124.5,252.5C 121.246,252.206 118.579,250.873 116.5,248.5 Z"/></g>
<g><path style="opacity:0.971" fill="#363636" d="M 203.5,248.5 C 203.5,249.167 203.833,249.5 204.5,249.5C 211.977,250.71 219.643,251.543 227.5,252C 219.167,252.667 210.833,252.667 202.5,252C 198.637,250.186 198.97,249.02 203.5,248.5 Z"/></g>
<g><path style="opacity:0.012" fill="#060606" d="M 366.5,252.5 C 366.027,253.906 365.027,254.573 363.5,254.5C 363.973,253.094 364.973,252.427 366.5,252.5 Z"/></g>
<g><path style="opacity:0.522" fill="#777777" d="M 124.5,252.5 C 129.111,252.761 133.444,253.928 137.5,256C 132.834,255.918 128.501,254.751 124.5,252.5 Z"/></g>
<g><path style="opacity:0.676" fill="#3b3b3b" d="M 316.5,256.5 C 316.833,256.5 317.167,256.5 317.5,256.5C 288.673,255.962 259.673,254.795 230.5,253C 259.206,253.229 287.873,254.396 316.5,256.5 Z"/></g>
<g><path style="opacity:0.008" fill="#0c0c0c" d="M 363.5,254.5 C 359.292,258.685 354.292,261.685 348.5,263.5C 348.833,262.833 349.167,262.167 349.5,261.5C 354.167,259.167 358.833,256.833 363.5,254.5 Z"/></g>
<g><path style="opacity:0.725" fill="#989898" d="M 368.5,249.5 C 367.833,250.5 367.167,251.5 366.5,252.5C 364.973,252.427 363.973,253.094 363.5,254.5C 358.833,256.833 354.167,259.167 349.5,261.5C 355.656,257.253 361.99,253.253 368.5,249.5 Z"/></g>
<g><path style="opacity:0.965" fill="#7f7f7f" d="M 142.5,259.5 C 141.244,259.539 140.244,259.039 139.5,258C 140.998,257.415 141.998,257.915 142.5,259.5 Z"/></g>
<g><path style="opacity:0.706" fill="#979797" d="M 160.5,242.5 C 161.167,242.5 161.833,242.5 162.5,242.5C 166.735,249.386 166.402,256.052 161.5,262.5C 157.019,264.382 152.353,264.882 147.5,264C 145.34,263.004 143.673,261.504 142.5,259.5C 148.092,264.114 154.092,264.614 160.5,261C 165.786,254.835 165.786,248.669 160.5,242.5 Z"/></g>
<g><path style="opacity:0.033" fill="#090909" d="M 162.5,242.5 C 165.561,244.83 167.228,247.997 167.5,252C 166.867,255.367 165.7,258.533 164,261.5C 163.329,262.252 162.496,262.586 161.5,262.5C 166.402,256.052 166.735,249.386 162.5,242.5 Z"/></g>
<g><path style="opacity:0.965" fill="#7d7d7d" d="M 349.5,261.5 C 349.167,262.167 348.833,262.833 348.5,263.5C 348.158,264.338 347.492,264.672 346.5,264.5C 345.5,264.5 344.5,264.5 343.5,264.5C 344.911,262.461 346.911,261.461 349.5,261.5 Z"/></g>
<g><path style="opacity:0.02" fill="#0f0f0f" d="M 343.5,264.5 C 344.5,264.5 345.5,264.5 346.5,264.5C 345.486,265.674 344.153,266.34 342.5,266.5C 342.833,265.833 343.167,265.167 343.5,264.5 Z"/></g>
<g><path style="opacity:0.494" fill="#3a3a3a" d="M 172.5,244.5 C 177.391,256.279 184.725,266.279 194.5,274.5C 194.973,275.906 195.973,276.573 197.5,276.5C 199.153,276.66 200.486,277.326 201.5,278.5C 201.833,279.167 202.167,279.833 202.5,280.5C 188.773,274.439 179.106,264.439 173.5,250.5C 173.938,250.565 174.272,250.399 174.5,250C 173.139,248.416 172.472,246.582 172.5,244.5 Z"/></g>
<g><path style="opacity:0.831" fill="#838383" d="M 194.5,274.5 C 196.027,274.427 197.027,275.094 197.5,276.5C 195.973,276.573 194.973,275.906 194.5,274.5 Z"/></g>
<g><path style="opacity:0.973" fill="#919191" d="M 201.5,278.5 C 209.546,281.595 217.88,283.262 226.5,283.5C 226.737,284.791 226.404,285.791 225.5,286.5C 225.389,285.883 225.056,285.383 224.5,285C 221.518,284.502 218.518,284.335 215.5,284.5C 211.301,283.029 206.967,281.695 202.5,280.5C 202.167,279.833 201.833,279.167 201.5,278.5 Z"/></g>
<g><path style="opacity:0.026" fill="#0a0a0a" d="M 202.5,280.5 C 206.967,281.695 211.301,283.029 215.5,284.5C 210.64,284.54 206.307,283.207 202.5,280.5 Z"/></g>
<g><path style="opacity:0.875" fill="#9e9e9e" d="M 343.5,264.5 C 343.167,265.167 342.833,265.833 342.5,266.5C 342.158,267.338 341.492,267.672 340.5,267.5C 323.608,274.226 306.275,279.726 288.5,284C 278.297,286.339 267.964,287.505 257.5,287.5C 257.5,287.167 257.5,286.833 257.5,286.5C 287.303,283.549 315.97,276.216 343.5,264.5 Z"/></g>
<g><path style="opacity:0.613" fill="#424242" d="M 257.5,286.5 C 257.5,286.833 257.5,287.167 257.5,287.5C 256.391,288.29 255.058,288.79 253.5,289C 264.417,290.838 275.417,291.838 286.5,292C 287.337,293.011 287.67,294.178 287.5,295.5C 286.733,294.828 286.066,293.995 285.5,293C 272.995,293.151 260.661,291.818 248.5,289C 248.043,288.586 247.709,288.086 247.5,287.5C 250.768,286.513 254.102,286.18 257.5,286.5 Z"/></g>
<g><path style="opacity:0.937" fill="#191919" d="M 215.5,284.5 C 218.518,284.335 221.518,284.502 224.5,285C 225.056,285.383 225.389,285.883 225.5,286.5C 220.867,300.124 212.534,310.791 200.5,318.5C 199.192,320.638 199.525,322.638 201.5,324.5C 197.841,323.182 197.008,320.848 199,317.5C 209.746,309.759 217.913,299.925 223.5,288C 220.975,286.281 218.308,285.114 215.5,284.5 Z"/></g>
<g><path style="opacity:0.999" fill="#a0a0a0" d="M 278.5,323.5 C 260.116,325.165 241.783,324.831 223.5,322.5C 217.884,322.909 213.218,321.076 209.5,317C 212.032,314.049 215.032,311.549 218.5,309.5C 220.04,311.437 222.04,312.604 224.5,313C 241.931,317.149 259.598,318.482 277.5,317C 284.47,315.839 291.47,315.005 298.5,314.5C 298.714,316.144 298.38,317.644 297.5,319C 291.465,321.743 285.132,323.243 278.5,323.5 Z"/></g>
<g><path style="opacity:0.98" fill="#898989" d="M 200.5,318.5 C 200.297,320.39 200.963,321.89 202.5,323C 205.993,324.791 209.659,326.124 213.5,327C 239.101,331.295 264.768,331.629 290.5,328C 296.027,326.935 301.36,325.269 306.5,323C 308.037,321.89 308.703,320.39 308.5,318.5C 309.77,322.475 308.103,324.975 303.5,326C 286.159,330.613 268.492,332.78 250.5,332.5C 237.4,332.071 224.4,330.737 211.5,328.5C 209.786,327.262 207.786,326.595 205.5,326.5C 204.486,325.326 203.153,324.66 201.5,324.5C 199.525,322.638 199.192,320.638 200.5,318.5 Z"/></g>
<g><path style="opacity:0.027" fill="#121212" d="M 340.5,267.5 C 332.634,271.852 324.3,275.352 315.5,278C 300.396,282.609 285.062,286.276 269.5,289C 274.107,290.752 278.774,290.919 283.5,289.5C 285.187,289.76 286.687,290.427 288,291.5C 293.476,302.313 301.142,311.313 311,318.5C 311.25,322.944 309.084,325.778 304.5,327C 288.2,331.864 271.533,334.03 254.5,333.5C 239.77,333.996 225.436,332.329 211.5,328.5C 224.4,330.737 237.4,332.071 250.5,332.5C 268.492,332.78 286.159,330.613 303.5,326C 308.103,324.975 309.77,322.475 308.5,318.5C 299.037,313.039 292.037,305.372 287.5,295.5C 287.67,294.178 287.337,293.011 286.5,292C 275.417,291.838 264.417,290.838 253.5,289C 255.058,288.79 256.391,288.29 257.5,287.5C 267.964,287.505 278.297,286.339 288.5,284C 306.275,279.726 323.608,274.226 340.5,267.5 Z"/></g>
<g><path style="opacity:0.996" fill="#5d5d5d" d="M 223.5,322.5 C 241.783,324.831 260.116,325.165 278.5,323.5C 270.217,324.986 261.717,325.652 253,325.5C 247.5,325.333 242,325.167 236.5,325C 231.924,324.728 227.591,323.895 223.5,322.5 Z"/></g>
<g><path style="opacity:0.031" fill="#080808" d="M 201.5,324.5 C 203.153,324.66 204.486,325.326 205.5,326.5C 203.62,326.771 202.287,326.104 201.5,324.5 Z"/></g>
<g><path style="opacity:0.046" fill="#070707" d="M 205.5,326.5 C 207.786,326.595 209.786,327.262 211.5,328.5C 209.102,328.741 207.102,328.074 205.5,326.5 Z"/></g>
<g><path style="opacity:0.02" fill="#0d0d0d" d="M 166.5,368.5 C 166.835,386.215 166.501,402.549 165.5,417.5C 165.5,400.833 165.5,384.167 165.5,367.5C 163.5,367.5 161.5,367.5 159.5,367.5C 159.5,385.167 159.5,402.833 159.5,420.5C 158.732,419.737 158.232,418.737 158,417.5C 157.333,400.833 157.333,384.167 158,367.5C 159.4,366.884 160.9,366.551 162.5,366.5C 164.333,366.585 165.666,367.252 166.5,368.5 Z"/></g>
<g><path style="opacity:0.996" fill="#0f0f0f" d="M 87.5,373.5 C 89.1053,374.969 89.6053,374.635 89,372.5C 87.9887,371.663 86.8221,371.33 85.5,371.5C 83.0336,370.366 80.367,370.199 77.5,371C 75.6763,371.66 74.343,372.827 73.5,374.5C 72.2578,377.74 72.4245,381.074 74,384.5C 74.6543,385.696 75.1543,385.696 75.5,384.5C 74.6072,381.916 74.2739,379.249 74.5,376.5C 74.8333,374.167 76.1667,372.833 78.5,372.5C 75.1603,376.052 74.6603,380.052 77,384.5C 83.762,390.756 89.9287,397.423 95.5,404.5C 93.8712,403.375 92.3712,402.041 91,400.5C 90.8333,400.833 90.6667,401.167 90.5,401.5C 92.1924,403.359 93.6924,405.359 95,407.5C 95.9975,413.05 95.4975,418.383 93.5,423.5C 87.4058,426.294 81.0725,427.127 74.5,426C 76.0581,426.21 77.3915,426.71 78.5,427.5C 73.0108,427.837 69.1774,425.504 67,420.5C 66.7181,416.961 66.2181,413.461 65.5,410C 67.9349,405.916 71.1016,405.416 75,408.5C 75.4983,411.817 75.665,415.15 75.5,418.5C 79.723,420.901 84.0563,421.068 88.5,419C 89.4438,416.281 89.7771,413.448 89.5,410.5C 90.2216,410.918 90.7216,411.584 91,412.5C 91.5205,410.711 91.1871,409.044 90,407.5C 83.6667,401.167 77.3333,394.833 71,388.5C 70.5357,389.094 70.369,389.761 70.5,390.5C 68.8639,389.251 67.6972,387.584 67,385.5C 63.3398,372.52 68.3398,365.52 82,364.5C 95.7332,365.601 100.9,372.934 97.5,386.5C 94.5525,386.777 91.7191,386.444 89,385.5C 88.6958,381.452 88.1958,377.452 87.5,373.5 Z"/></g>
<g><path style="opacity:0.03" fill="#000000" d="M 142.5,367.5 C 143.832,376.809 144.499,386.476 144.5,396.5C 144.333,406.167 144.167,415.833 144,425.5C 140.725,427.091 137.725,426.758 135,424.5C 135.549,416.107 135.383,407.773 134.5,399.5C 136.155,407.952 137.155,416.619 137.5,425.5C 139.467,425.739 141.301,425.406 143,424.5C 143.82,405.427 143.653,386.427 142.5,367.5 Z"/></g>
<g><path style="opacity:0.049" fill="#000000" d="M 257.5,425.5 C 257.83,406.326 257.497,387.326 256.5,368.5C 254.833,367.167 253.167,367.167 251.5,368.5C 250.503,387.326 250.17,406.326 250.5,425.5C 249.338,406.338 249.171,387.004 250,367.5C 252.667,366.167 255.333,366.167 258,367.5C 258.173,386.073 258.673,404.573 259.5,423C 258.934,423.995 258.267,424.828 257.5,425.5 Z"/></g>
<g><path style="opacity:0.996" fill="#111111" d="M 142.5,367.5 C 136.833,367.664 136.5,367.997 141.5,368.5C 141.5,387.167 141.5,405.833 141.5,424.5C 140.167,424.5 138.833,424.5 137.5,424.5C 137.666,415.827 137.5,407.16 137,398.5C 130.734,397.174 124.568,397.174 118.5,398.5C 118.5,407.167 118.5,415.833 118.5,424.5C 116.801,424.34 115.134,424.506 113.5,425C 115.473,425.495 117.473,425.662 119.5,425.5C 117.105,426.814 114.605,426.814 112,425.5C 111.333,406.167 111.333,386.833 112,367.5C 114.667,366.167 117.333,366.167 120,367.5C 120.333,375.5 120.667,383.5 121,391.5C 125.737,392.469 130.57,392.803 135.5,392.5C 134.778,384.143 134.778,375.809 135.5,367.5C 137.972,366.234 140.306,366.234 142.5,367.5 Z"/></g>
<g><path style="opacity:0.996" fill="#080808" d="M 188.5,367.5 C 182.833,367.664 182.5,367.997 187.5,368.5C 187.667,387.17 187.5,405.836 187,424.5C 186.623,423.058 185.79,422.058 184.5,421.5C 182.315,420.913 180.648,421.913 179.5,424.5C 177.883,425.038 176.216,425.371 174.5,425.5C 168.41,426.863 163.91,424.863 161,419.5C 160.5,402.503 160.333,385.503 160.5,368.5C 161.833,368.5 163.167,368.5 164.5,368.5C 164.17,385.009 164.504,401.342 165.5,417.5C 166.501,402.549 166.835,386.215 166.5,368.5C 167.332,384.995 167.832,401.662 168,418.5C 173.622,421.829 177.956,420.496 181,414.5C 181.817,399.455 181.65,384.455 180.5,369.5C 182.65,366.479 185.316,365.812 188.5,367.5 Z"/></g>
<g><path style="opacity:0.985" fill="#0b0b0b" d="M 233.5,374.5 C 232.637,373.537 231.97,373.537 231.5,374.5C 232.789,380.499 232.789,386.499 231.5,392.5C 226.396,394.881 226.396,395.547 231.5,394.5C 233.144,397.004 234.644,399.671 236,402.5C 237.081,409.054 236.414,415.388 234,421.5C 232.048,423.894 229.548,425.394 226.5,426C 219.476,426.831 212.476,426.664 205.5,425.5C 205.462,406.949 205.129,388.283 204.5,369.5C 204.855,368.478 205.522,367.811 206.5,367.5C 212.319,366.347 218.319,366.181 224.5,367C 229.169,367.647 232.169,370.147 233.5,374.5 Z M 226.5,379.5 C 227.115,383.96 226.115,387.96 223.5,391.5C 219.872,393.08 216.538,392.747 213.5,390.5C 213.5,385.167 213.5,379.833 213.5,374.5C 216.518,374.335 219.518,374.502 222.5,375C 224.609,375.907 225.942,377.407 226.5,379.5 Z M 224.5,399.5 C 224.833,400.5 225.5,401.167 226.5,401.5C 227.995,406.88 227.828,412.213 226,417.5C 222.323,419.522 218.49,419.855 214.5,418.5C 213.376,412.552 213.21,406.552 214,400.5C 217.394,399.544 220.894,399.211 224.5,399.5 Z"/></g>
<g><path style="opacity:0.991" fill="#010101" d="M 251.5,368.5 C 252.833,368.5 254.167,368.5 255.5,368.5C 255.5,387.167 255.5,405.833 255.5,424.5C 254.167,424.5 252.833,424.5 251.5,424.5C 251.5,405.833 251.5,387.167 251.5,368.5 Z"/></g>
<g><path style="opacity:0.996" fill="#101010" d="M 294.5,383.5 C 294.833,382.167 295.167,380.833 295.5,379.5C 292.443,383.258 289.61,387.258 287,391.5C 286.53,392.577 286.697,393.577 287.5,394.5C 291.399,402.631 295.565,410.631 300,418.5C 300.464,417.906 300.631,417.239 300.5,416.5C 302.527,418.865 304.193,421.531 305.5,424.5C 305.291,425.086 304.957,425.586 304.5,426C 301.833,426.667 299.167,426.667 296.5,426C 291.955,418.364 287.789,410.531 284,402.5C 282.7,410.001 282.033,417.668 282,425.5C 279.205,426.783 276.372,426.783 273.5,425.5C 273.167,424.833 272.833,424.167 272.5,423.5C 273.199,405.189 273.366,386.855 273,368.5C 275.76,366.297 278.76,365.964 282,367.5C 282.333,373.5 282.667,379.5 283,385.5C 287.538,379.593 291.705,373.426 295.5,367C 298.167,366.333 300.833,366.333 303.5,367C 304.535,368.507 304.368,370.007 303,371.5C 300.39,375.742 297.557,379.742 294.5,383.5 Z"/></g>
<g><path style="opacity:0.993" fill="#010101" d="M 357.5,425.5 C 357.336,419.833 357.003,419.5 356.5,424.5C 349.5,424.5 342.5,424.5 335.5,424.5C 335.5,405.833 335.5,387.167 335.5,368.5C 334.503,387.326 334.17,406.326 334.5,425.5C 333.169,406.098 333.169,386.598 334.5,367C 337.099,366.231 339.599,366.398 342,367.5C 342.333,384.5 342.667,401.5 343,418.5C 348.072,419.471 353.238,419.805 358.5,419.5C 358.795,421.735 358.461,423.735 357.5,425.5 Z"/></g>
<g><path style="opacity:0.996" fill="#0c0c0c" d="M 387.5,425.5 C 388.673,423.496 390.34,421.996 392.5,421C 391.5,420.333 390.5,420.333 389.5,421C 387.695,423.403 385.362,425.07 382.5,426C 383.448,426.483 384.448,426.649 385.5,426.5C 381.402,428.955 377.068,429.122 372.5,427C 369.667,425.5 367.5,423.333 366,420.5C 365.826,403.26 365.326,386.093 364.5,369C 367.294,366.362 370.461,365.862 374,367.5C 374.333,384.5 374.667,401.5 375,418.5C 380.153,421.581 384.486,420.581 388,415.5C 388.333,399.5 388.667,383.5 389,367.5C 391.667,366.167 394.333,366.167 397,367.5C 397.997,386.231 398.497,404.897 398.5,423.5C 396.346,427.154 393.679,427.487 390.5,424.5C 389.583,425.127 388.583,425.461 387.5,425.5 Z"/></g>
<g><path style="opacity:0.988" fill="#0c0c0c" d="M 442.5,402.5 C 443.878,408.405 443.712,414.405 442,420.5C 440.549,422.464 438.716,423.797 436.5,424.5C 436.082,425.222 435.416,425.722 434.5,426C 427.174,426.5 419.841,426.666 412.5,426.5C 411.539,407.621 411.206,388.788 411.5,370C 411.759,368.739 412.426,367.739 413.5,367C 419.5,366.333 425.5,366.333 431.5,367C 439.857,369.034 443.524,374.368 442.5,383C 443.22,388.013 441.886,392.346 438.5,396C 440.923,397.571 442.256,399.737 442.5,402.5 Z M 421.5,374.5 C 429.359,372.736 433.359,375.736 433.5,383.5C 433.422,391.461 429.588,394.127 422,391.5C 421.501,385.843 421.334,380.176 421.5,374.5 Z M 431.5,399.5 C 432.167,400.833 433.167,401.833 434.5,402.5C 434.666,407.179 434.499,411.845 434,416.5C 430.157,419.9 426.157,420.234 422,417.5C 421.501,411.509 421.334,405.509 421.5,399.5C 424.833,399.5 428.167,399.5 431.5,399.5 Z"/></g>
<g><path style="opacity:0.996" fill="#010101" d="M 463.5,368.5 C 463.5,387.167 463.5,405.833 463.5,424.5C 462.167,424.5 460.833,424.5 459.5,424.5C 459.5,405.833 459.5,387.167 459.5,368.5C 460.833,368.5 462.167,368.5 463.5,368.5 Z"/></g>
<g><path style="opacity:0.996" fill="#070707" d="M 502.5,382.5 C 502.833,381.167 503.167,379.833 503.5,378.5C 501.05,380.629 499.383,383.296 498.5,386.5C 497.094,386.973 496.427,387.973 496.5,389.5C 494.623,390.659 494.123,392.326 495,394.5C 500.117,404.4 504.95,414.4 509.5,424.5C 508.127,424.657 506.793,424.49 505.5,424C 504.182,421.176 502.515,418.676 500.5,416.5C 500.672,415.508 500.338,414.842 499.5,414.5C 499.539,411.911 498.539,409.911 496.5,408.5C 495.44,404.711 493.607,401.377 491,398.5C 489.97,398.836 489.47,399.503 489.5,400.5C 488.883,400.611 488.383,400.944 488,401.5C 487.5,409.159 487.334,416.826 487.5,424.5C 486.167,424.5 484.833,424.5 483.5,424.5C 483.5,405.833 483.5,387.167 483.5,368.5C 484.833,368.5 486.167,368.5 487.5,368.5C 485.777,367.193 483.943,367.193 482,368.5C 481.171,387.338 481.338,406.005 482.5,424.5C 484.265,425.461 486.265,425.795 488.5,425.5C 486.105,426.814 483.605,426.814 481,425.5C 480.333,406.167 480.333,386.833 481,367.5C 483.667,366.167 486.333,366.167 489,367.5C 489.282,373.216 489.948,378.883 491,384.5C 494.638,378.697 498.471,373.03 502.5,367.5C 505.103,366.438 507.77,366.272 510.5,367C 511.517,368.049 511.684,369.216 511,370.5C 508.39,374.742 505.557,378.742 502.5,382.5 Z"/></g>
<g><path style="opacity:0.803" fill="#535353" d="M 508.5,370.5 C 507.77,368.955 506.437,368.122 504.5,368C 506.728,367.18 508.728,367.513 510.5,369C 509.956,369.717 509.289,370.217 508.5,370.5 Z"/></g>
<g><path style="opacity:0.992" fill="#535353" d="M 188.5,367.5 C 189.653,386.427 189.82,405.427 189,424.5C 187.989,425.337 186.822,425.67 185.5,425.5C 184.85,425.196 184.183,424.863 183.5,424.5C 181.925,425.456 180.258,426.123 178.5,426.5C 178.833,425.833 179.167,425.167 179.5,424.5C 181.411,423.925 183.078,422.925 184.5,421.5C 185.79,422.058 186.623,423.058 187,424.5C 187.5,405.836 187.667,387.17 187.5,368.5C 182.5,367.997 182.833,367.664 188.5,367.5 Z"/></g>
<g><path style="opacity:0.976" fill="#383838" d="M 206.5,367.5 C 212.176,367.334 217.843,367.501 223.5,368C 218.177,368.499 212.844,368.666 207.5,368.5C 207.5,387.167 207.5,405.833 207.5,424.5C 207.167,424.5 206.833,424.5 206.5,424.5C 206.5,405.5 206.5,386.5 206.5,367.5 Z"/></g>
<g><path style="opacity:0.987" fill="#4a4a4a" d="M 275.5,368.5 C 277.223,367.193 279.057,367.193 281,368.5C 281.184,376.079 281.684,383.579 282.5,391C 282,391.5 281.5,392 281,392.5C 279.534,384.672 279.034,376.672 279.5,368.5C 278.167,368.5 276.833,368.5 275.5,368.5 Z"/></g>
<g><path style="opacity:0.627" fill="#939393" d="M 300.5,371.5 C 300.461,370.244 300.961,369.244 302,368.5C 302.585,369.998 302.085,370.998 300.5,371.5 Z"/></g>
<g><path style="opacity:0.992" fill="#363636" d="M 335.5,368.5 C 337.223,367.193 339.057,367.193 341,368.5C 341.833,385.51 341.666,402.51 340.5,419.5C 339.501,402.513 339.167,385.513 339.5,368.5C 338.167,368.5 336.833,368.5 335.5,368.5 Z"/></g>
<g><path style="opacity:0.99" fill="#2a2a2a" d="M 251.5,368.5 C 253.167,367.167 254.833,367.167 256.5,368.5C 256.83,387.341 256.497,406.007 255.5,424.5C 255.5,405.833 255.5,387.167 255.5,368.5C 254.167,368.5 252.833,368.5 251.5,368.5 Z"/></g>
<g><path style="opacity:0.62" fill="#727272" d="M 508.5,370.5 C 507.617,373.704 505.95,376.371 503.5,378.5C 504.383,375.296 506.05,372.629 508.5,370.5 Z"/></g>
<g><path style="opacity:0.678" fill="#b0b0b0" d="M 85.5,371.5 C 82.9407,371.198 80.6074,371.532 78.5,372.5C 76.1667,372.833 74.8333,374.167 74.5,376.5C 73.6618,376.158 73.3284,375.492 73.5,374.5C 74.343,372.827 75.6763,371.66 77.5,371C 80.367,370.199 83.0336,370.366 85.5,371.5 Z"/></g>
<g><path style="opacity:0.663" fill="#404040" d="M 78.5,372.5 C 80.6074,371.532 82.9407,371.198 85.5,371.5C 86.8221,371.33 87.9887,371.663 89,372.5C 89.6053,374.635 89.1053,374.969 87.5,373.5C 84.5701,372.701 81.5701,372.368 78.5,372.5 Z"/></g>
<g><path style="opacity:0.974" fill="#838383" d="M 225.5,374.5 C 221.232,373.627 216.898,373.294 212.5,373.5C 212.823,380.022 212.49,386.355 211.5,392.5C 211.5,385.833 211.5,379.167 211.5,372.5C 215.846,372.334 220.179,372.501 224.5,373C 225.056,373.383 225.389,373.883 225.5,374.5 Z"/></g>
<g><path style="opacity:0.565" fill="#7a7a7a" d="M 419.5,372.5 C 433.331,369.497 438.497,374.83 435,388.5C 437.308,376.402 432.474,371.402 420.5,373.5C 420.666,380.175 420.5,386.842 420,393.5C 419.5,386.508 419.334,379.508 419.5,372.5 Z"/></g>
<g><path style="opacity:0.907" fill="#373737" d="M 165.5,417.5 C 164.504,401.342 164.17,385.009 164.5,368.5C 163.167,368.5 161.833,368.5 160.5,368.5C 160.333,385.503 160.5,402.503 161,419.5C 163.91,424.863 168.41,426.863 174.5,425.5C 175.568,426.434 176.901,426.768 178.5,426.5C 173.256,429.078 167.922,428.911 162.5,426C 160.84,424.512 159.84,422.679 159.5,420.5C 159.5,402.833 159.5,385.167 159.5,367.5C 161.5,367.5 163.5,367.5 165.5,367.5C 165.5,384.167 165.5,400.833 165.5,417.5 Z"/></g>
<g><path style="opacity:0.588" fill="#919191" d="M 300.5,371.5 C 299.617,374.704 297.95,377.371 295.5,379.5C 296.383,376.296 298.05,373.629 300.5,371.5 Z"/></g>
<g><path style="opacity:0.95" fill="#7e7e7e" d="M 395.5,368.5 C 396.497,387.326 396.83,406.326 396.5,425.5C 395.448,425.649 394.448,425.483 393.5,425C 395.48,406.402 396.146,387.569 395.5,368.5 Z"/></g>
<g><path style="opacity:0.983" fill="#5c5c5c" d="M 142.5,367.5 C 143.653,386.427 143.82,405.427 143,424.5C 141.301,425.406 139.467,425.739 137.5,425.5C 137.5,425.167 137.5,424.833 137.5,424.5C 138.833,424.5 140.167,424.5 141.5,424.5C 141.5,405.833 141.5,387.167 141.5,368.5C 136.5,367.997 136.833,367.664 142.5,367.5 Z"/></g>
<g><path style="opacity:0.91" fill="#9e9e9e" d="M 93.5,370.5 C 94.7899,371.058 95.6232,372.058 96,373.5C 96.4988,377.486 96.6655,381.486 96.5,385.5C 94.4727,385.662 92.4727,385.495 90.5,385C 92.1341,384.506 93.8008,384.34 95.5,384.5C 95.8824,379.638 95.2157,374.972 93.5,370.5 Z"/></g>
<g><path style="opacity:0.363" fill="#262626" d="M 225.5,374.5 C 226.79,375.058 227.623,376.058 228,377.5C 228.667,380.833 228.667,384.167 228,387.5C 227.817,384.635 227.317,381.969 226.5,379.5C 225.942,377.407 224.609,375.907 222.5,375C 219.518,374.502 216.518,374.335 213.5,374.5C 213.5,379.833 213.5,385.167 213.5,390.5C 213.5,391.5 213.5,392.5 213.5,393.5C 216.518,393.335 219.518,393.502 222.5,394C 219.167,394.667 215.833,394.667 212.5,394C 211.944,393.617 211.611,393.117 211.5,392.5C 212.49,386.355 212.823,380.022 212.5,373.5C 216.898,373.294 221.232,373.627 225.5,374.5 Z"/></g>
<g><path style="opacity:0.545" fill="#707070" d="M 73.5,374.5 C 73.3284,375.492 73.6618,376.158 74.5,376.5C 74.2739,379.249 74.6072,381.916 75.5,384.5C 75.1543,385.696 74.6543,385.696 74,384.5C 72.4245,381.074 72.2578,377.74 73.5,374.5 Z"/></g>
<g><path style="opacity:0.988" fill="#686868" d="M 233.5,374.5 C 233.666,380.176 233.499,385.843 233,391.5C 232.617,392.056 232.117,392.389 231.5,392.5C 232.789,386.499 232.789,380.499 231.5,374.5C 231.97,373.537 232.637,373.537 233.5,374.5 Z"/></g>
<g><path style="opacity:0.822" fill="#7a7a7a" d="M 439.5,391.5 C 440.149,386.864 440.649,382.198 441,377.5C 441.667,381.5 441.667,385.5 441,389.5C 440.722,390.416 440.222,391.082 439.5,391.5 Z"/></g>
<g><path style="opacity:0.863" fill="#656565" d="M 367.5,368.5 C 367.389,386.21 367.556,403.877 368,421.5C 366.859,412.43 366.359,403.263 366.5,394C 366.5,385.327 366.834,376.827 367.5,368.5 Z"/></g>
<g><path style="opacity:0.647" fill="#717171" d="M 503.5,378.5 C 503.167,379.833 502.833,381.167 502.5,382.5C 501.167,383.833 499.833,385.167 498.5,386.5C 499.383,383.296 501.05,380.629 503.5,378.5 Z"/></g>
<g><path style="opacity:0.051" fill="#020202" d="M 294.5,383.5 C 294.573,385.027 293.906,386.027 292.5,386.5C 292.427,384.973 293.094,383.973 294.5,383.5 Z"/></g>
<g><path style="opacity:0.855" fill="#626262" d="M 487.5,368.5 C 488.182,375.901 488.848,383.401 489.5,391C 489.167,391.167 488.833,391.333 488.5,391.5C 487.503,383.862 487.169,376.196 487.5,368.5 Z"/></g>
<g><path style="opacity:0.052" fill="#070707" d="M 502.5,382.5 C 502.155,385.198 500.822,387.198 498.5,388.5C 498.5,387.833 498.5,387.167 498.5,386.5C 499.833,385.167 501.167,383.833 502.5,382.5 Z"/></g>
<g><path style="opacity:0.953" fill="#787878" d="M 463.5,368.5 C 464.497,387.326 464.83,406.326 464.5,425.5C 462.265,425.795 460.265,425.461 458.5,424.5C 458.833,424.5 459.167,424.5 459.5,424.5C 460.833,424.5 462.167,424.5 463.5,424.5C 463.5,405.833 463.5,387.167 463.5,368.5 Z"/></g>
<g><path style="opacity:0.592" fill="#757575" d="M 498.5,386.5 C 498.5,387.167 498.5,387.833 498.5,388.5C 497.833,388.833 497.167,389.167 496.5,389.5C 496.427,387.973 497.094,386.973 498.5,386.5 Z"/></g>
<g><path style="opacity:0.514" fill="#5c5c5c" d="M 295.5,379.5 C 295.167,380.833 294.833,382.167 294.5,383.5C 293.094,383.973 292.427,384.973 292.5,386.5C 291.89,388.434 290.89,390.101 289.5,391.5C 288.833,392.5 288.167,393.5 287.5,394.5C 286.697,393.577 286.53,392.577 287,391.5C 289.61,387.258 292.443,383.258 295.5,379.5 Z"/></g>
<g><path style="opacity:0.977" fill="#414141" d="M 463.5,368.5 C 462.167,368.5 460.833,368.5 459.5,368.5C 459.5,387.167 459.5,405.833 459.5,424.5C 459.167,424.5 458.833,424.5 458.5,424.5C 457.596,423.791 457.263,422.791 457.5,421.5C 457.5,420.5 457.5,419.5 457.5,418.5C 457.333,401.83 457.5,385.163 458,368.5C 459.943,367.193 461.777,367.193 463.5,368.5 Z"/></g>
<g><path style="opacity:0.227" fill="#0b0b0b" d="M 457.5,421.5 C 457.263,422.791 457.596,423.791 458.5,424.5C 460.265,425.461 462.265,425.795 464.5,425.5C 464.83,406.326 464.497,387.326 463.5,368.5C 461.777,367.193 459.943,367.193 458,368.5C 457.5,385.163 457.333,401.83 457.5,418.5C 456.338,401.672 456.172,384.672 457,367.5C 459.401,366.398 461.901,366.231 464.5,367C 465.493,386.757 465.826,406.591 465.5,426.5C 462.813,426.664 460.146,426.497 457.5,426C 456.199,424.384 456.199,422.884 457.5,421.5 Z"/></g>
<g><path style="opacity:0.037" fill="#0e0e0e" d="M 233.5,374.5 C 234.268,375.263 234.768,376.263 235,377.5C 235.667,381.5 235.667,385.5 235,389.5C 234.777,391.881 233.61,393.547 231.5,394.5C 231.5,393.833 231.5,393.167 231.5,392.5C 232.117,392.389 232.617,392.056 233,391.5C 233.499,385.843 233.666,380.176 233.5,374.5 Z"/></g>
<g><path style="opacity:0.427" fill="#2d2d2d" d="M 89.5,410.5 C 83.1944,403.86 76.8611,397.193 70.5,390.5C 70.369,389.761 70.5357,389.094 71,388.5C 77.3333,394.833 83.6667,401.167 90,407.5C 91.1871,409.044 91.5205,410.711 91,412.5C 90.7216,411.584 90.2216,410.918 89.5,410.5 Z"/></g>
<g><path style="opacity:0.818" fill="#838383" d="M 439.5,391.5 C 438.969,393.544 437.802,395.211 436,396.5C 436.077,394.228 437.243,392.562 439.5,391.5 Z"/></g>
<g><path style="opacity:0.773" fill="#8f8f8f" d="M 231.5,392.5 C 231.5,393.167 231.5,393.833 231.5,394.5C 226.396,395.547 226.396,394.881 231.5,392.5 Z"/></g>
<g><path style="opacity:0.568" fill="#313131" d="M 251.5,368.5 C 251.5,387.167 251.5,405.833 251.5,424.5C 253.265,425.461 255.265,425.795 257.5,425.5C 255.167,426.833 252.833,426.833 250.5,425.5C 250.17,406.326 250.503,387.326 251.5,368.5 Z"/></g>
<g><path style="opacity:0.719" fill="#848484" d="M 256.5,368.5 C 257.497,387.326 257.83,406.326 257.5,425.5C 255.265,425.795 253.265,425.461 251.5,424.5C 252.833,424.5 254.167,424.5 255.5,424.5C 256.497,406.007 256.83,387.341 256.5,368.5 Z"/></g>
<g><path style="opacity:0.563" fill="#666666" d="M 226.5,401.5 C 225.5,401.167 224.833,400.5 224.5,399.5C 220.702,398.517 216.702,398.183 212.5,398.5C 212.666,405.508 212.5,412.508 212,419.5C 211.333,412.167 211.333,404.833 212,397.5C 215.744,396.374 219.577,396.207 223.5,397C 226.703,398.172 228.203,400.339 228,403.5C 227.722,402.584 227.222,401.918 226.5,401.5 Z"/></g>
<g><path style="opacity:0.569" fill="#666666" d="M 434.5,402.5 C 433.167,401.833 432.167,400.833 431.5,399.5C 428.038,398.518 424.371,398.185 420.5,398.5C 420.666,405.841 420.5,413.174 420,420.5C 419.333,412.833 419.333,405.167 420,397.5C 426.311,395.255 431.644,396.588 436,401.5C 436.667,406.5 436.667,411.5 436,416.5C 435.826,411.649 435.326,406.982 434.5,402.5 Z"/></g>
<g><path style="opacity:0.408" fill="#474747" d="M 118.5,398.5 C 124.568,397.174 130.734,397.174 137,398.5C 137.5,407.16 137.666,415.827 137.5,424.5C 137.5,424.833 137.5,425.167 137.5,425.5C 137.155,416.619 136.155,407.952 134.5,399.5C 130.167,399.5 125.833,399.5 121.5,399.5C 121.167,399.5 120.833,399.5 120.5,399.5C 120.158,398.662 119.492,398.328 118.5,398.5 Z"/></g>
<g><path style="opacity:0.053" fill="#1f1f1f" d="M 498.5,388.5 C 498.249,390.17 497.582,391.67 496.5,393C 502.524,403.88 507.858,415.047 512.5,426.5C 508.988,427.055 505.988,426.388 503.5,424.5C 506.243,425.865 508.243,425.865 509.5,424.5C 504.95,414.4 500.117,404.4 495,394.5C 494.123,392.326 494.623,390.659 496.5,389.5C 497.167,389.167 497.833,388.833 498.5,388.5 Z"/></g>
<g><path style="opacity:0.127" fill="#050505" d="M 120.5,399.5 C 120.833,399.5 121.167,399.5 121.5,399.5C 120.86,408.266 120.193,416.932 119.5,425.5C 119.174,416.651 119.507,407.984 120.5,399.5 Z"/></g>
<g><path style="opacity:0.873" fill="#a6a6a6" d="M 118.5,398.5 C 119.492,398.328 120.158,398.662 120.5,399.5C 119.507,407.984 119.174,416.651 119.5,425.5C 117.473,425.662 115.473,425.495 113.5,425C 115.134,424.506 116.801,424.34 118.5,424.5C 118.5,415.833 118.5,407.167 118.5,398.5 Z"/></g>
<g><path style="opacity:0.991" fill="#3e3e3e" d="M 442.5,402.5 C 442.666,407.179 442.499,411.845 442,416.5C 441.71,418.044 441.044,419.377 440,420.5C 440.255,413.909 440.588,407.242 441,400.5C 441.278,401.416 441.778,402.082 442.5,402.5 Z"/></g>
<g><path style="opacity:0.988" fill="#414141" d="M 367.5,368.5 C 369.223,367.193 371.057,367.193 373,368.5C 373.667,385.167 373.667,401.833 373,418.5C 371.529,401.928 371.029,385.262 371.5,368.5C 370.167,368.5 368.833,368.5 367.5,368.5 Z"/></g>
<g><path style="opacity:0.148" fill="#060606" d="M 188.5,367.5 C 189.832,376.809 190.499,386.476 190.5,396.5C 190.333,406.167 190.167,415.833 190,425.5C 188.384,426.801 186.884,426.801 185.5,425.5C 186.822,425.67 187.989,425.337 189,424.5C 189.82,405.427 189.653,386.427 188.5,367.5 Z"/></g>
<g><path style="opacity:0.937" fill="#848484" d="M 75.5,418.5 C 74.7519,420.735 73.9186,420.402 73,417.5C 72.3333,414.5 72.3333,411.5 73,408.5C 73.0265,412.179 73.8598,415.512 75.5,418.5 Z"/></g>
<g><path style="opacity:0.988" fill="#3d3d3d" d="M 487.5,368.5 C 486.167,368.5 484.833,368.5 483.5,368.5C 483.5,387.167 483.5,405.833 483.5,424.5C 483.167,424.5 482.833,424.5 482.5,424.5C 481.338,406.005 481.171,387.338 482,368.5C 483.943,367.193 485.777,367.193 487.5,368.5 Z"/></g>
<g><path style="opacity:0.795" fill="#676767" d="M 489.5,400.5 C 488.56,408.779 488.227,417.112 488.5,425.5C 486.265,425.795 484.265,425.461 482.5,424.5C 482.833,424.5 483.167,424.5 483.5,424.5C 484.833,424.5 486.167,424.5 487.5,424.5C 487.334,416.826 487.5,409.159 488,401.5C 488.383,400.944 488.883,400.611 489.5,400.5 Z"/></g>
<g><path style="opacity:0.878" fill="#676767" d="M 496.5,408.5 C 498.539,409.911 499.539,411.911 499.5,414.5C 497.992,412.819 496.992,410.819 496.5,408.5 Z"/></g>
<g><path style="opacity:0.992" fill="#3c3c3c" d="M 95.5,404.5 C 97.0672,405.681 97.9005,407.347 98,409.5C 99.6515,415.964 98.1515,421.464 93.5,426C 92.552,426.483 91.552,426.649 90.5,426.5C 91.6935,425.728 92.6935,424.728 93.5,423.5C 95.4975,418.383 95.9975,413.05 95,407.5C 93.6924,405.359 92.1924,403.359 90.5,401.5C 90.6667,401.167 90.8333,400.833 91,400.5C 92.3712,402.041 93.8712,403.375 95.5,404.5 Z"/></g>
<g><path style="opacity:0.537" fill="#2e2e2e" d="M 289.5,391.5 C 292.869,399.91 296.535,408.243 300.5,416.5C 300.631,417.239 300.464,417.906 300,418.5C 295.565,410.631 291.399,402.631 287.5,394.5C 288.167,393.5 288.833,392.5 289.5,391.5 Z"/></g>
<g><path style="opacity:0.045" fill="#1b1b1b" d="M 496.5,408.5 C 496.992,410.819 497.992,412.819 499.5,414.5C 500.338,414.842 500.672,415.508 500.5,416.5C 501.5,419.167 502.5,421.833 503.5,424.5C 499.108,417.392 494.941,410.058 491,402.5C 489.9,410.241 489.066,417.908 488.5,425.5C 488.227,417.112 488.56,408.779 489.5,400.5C 489.47,399.503 489.97,398.836 491,398.5C 493.607,401.377 495.44,404.711 496.5,408.5 Z"/></g>
<g><path style="opacity:0.822" fill="#a3a3a3" d="M 282.5,398.5 C 283.239,398.369 283.906,398.536 284.5,399C 283.299,399.903 282.465,401.069 282,402.5C 281.667,409.833 281.333,417.167 281,424.5C 280.333,416.833 280.333,409.167 281,401.5C 281.513,400.473 282.013,399.473 282.5,398.5 Z"/></g>
<g><path style="opacity:0.886" fill="#797979" d="M 500.5,416.5 C 502.515,418.676 504.182,421.176 505.5,424C 506.793,424.49 508.127,424.657 509.5,424.5C 508.243,425.865 506.243,425.865 503.5,424.5C 502.5,421.833 501.5,419.167 500.5,416.5 Z"/></g>
<g><path style="opacity:0.686" fill="#a0a0a0" d="M 184.5,421.5 C 183.078,422.925 181.411,423.925 179.5,424.5C 180.648,421.913 182.315,420.913 184.5,421.5 Z"/></g>
<g><path style="opacity:0.714" fill="#8b8b8b" d="M 206.5,424.5 C 206.833,424.5 207.167,424.5 207.5,424.5C 213.176,424.666 218.843,424.499 224.5,424C 228.499,423.332 231.332,421.165 233,417.5C 233.333,412.167 233.667,406.833 234,401.5C 234.667,407.167 234.667,412.833 234,418.5C 232.332,422.165 229.499,424.332 225.5,425C 218.986,425.82 212.653,425.653 206.5,424.5 Z"/></g>
<g><path style="opacity:0.885" fill="#ababab" d="M 357.5,425.5 C 349.981,425.825 342.648,425.492 335.5,424.5C 342.5,424.5 349.5,424.5 356.5,424.5C 357.003,419.5 357.336,419.833 357.5,425.5 Z"/></g>
<g><path style="opacity:0.9" fill="#888888" d="M 436.5,424.5 C 428.876,425.398 421.209,425.731 413.5,425.5C 413.333,406.497 413.5,387.497 414,368.5C 414.5,387.164 414.667,405.83 414.5,424.5C 421.967,424.964 429.301,424.297 436.5,422.5C 437.463,422.97 437.463,423.637 436.5,424.5 Z"/></g>
<g><path style="opacity:0.841" fill="#969696" d="M 179.5,424.5 C 179.167,425.167 178.833,425.833 178.5,426.5C 176.901,426.768 175.568,426.434 174.5,425.5C 176.216,425.371 177.883,425.038 179.5,424.5 Z"/></g>
<g><path style="opacity:0.197" fill="#242424" d="M 335.5,368.5 C 335.5,387.167 335.5,405.833 335.5,424.5C 342.648,425.492 349.981,425.825 357.5,425.5C 349.833,426.833 342.167,426.833 334.5,425.5C 334.17,406.326 334.503,387.326 335.5,368.5 Z"/></g>
<g><path style="opacity:0.596" fill="#6e6e6e" d="M 387.5,425.5 C 387.158,426.338 386.492,426.672 385.5,426.5C 384.448,426.649 383.448,426.483 382.5,426C 385.362,425.07 387.695,423.403 389.5,421C 390.5,420.333 391.5,420.333 392.5,421C 390.34,421.996 388.673,423.496 387.5,425.5 Z"/></g>
<g><path style="opacity:0.62" fill="#4c4c4c" d="M 93.5,423.5 C 92.6935,424.728 91.6935,425.728 90.5,426.5C 86.5977,428.489 82.5977,428.823 78.5,427.5C 77.3915,426.71 76.0581,426.21 74.5,426C 81.0725,427.127 87.4058,426.294 93.5,423.5 Z"/></g>
</svg>
