<svg width="24" height="24" viewBox="0 0 24 24" fill="none" xmlns="http://www.w3.org/2000/svg">
    <rect width="24" height="24" rx="4" fill="#EBEF14"/>
    <path d="M12 13.4585C11.6583 13.4585 11.375 13.1752 11.375 12.8335V8.4585C11.375 8.11683 11.6583 7.8335 12 7.8335C12.3417 7.8335 12.625 8.11683 12.625 8.4585V12.8335C12.625 13.1752 12.3417 13.4585 12 13.4585Z" fill="white"/>
    <path d="M12 16.375C11.775 16.375 11.5667 16.2917 11.4083 16.1334C11.3333 16.05 11.275 15.9584 11.225 15.8584C11.1834 15.7584 11.1667 15.65 11.1667 15.5417C11.1667 15.325 11.2583 15.1083 11.4083 14.95C11.7167 14.6417 12.2834 14.6417 12.5917 14.95C12.7417 15.1083 12.8334 15.325 12.8334 15.5417C12.8334 15.65 12.8083 15.7584 12.7667 15.8584C12.725 15.9584 12.6667 16.05 12.5917 16.1334C12.4334 16.2917 12.225 16.375 12 16.375Z" fill="white"/>
    <path d="M12.0001 20.9584C11.4418 20.9584 10.8751 20.8167 10.3751 20.5251L5.42512 17.6667C4.42512 17.0834 3.80011 16.0084 3.80011 14.8501V9.1501C3.80011 7.99176 4.42512 6.91676 5.42512 6.33342L10.3751 3.4751C11.3751 2.89176 12.6168 2.89176 13.6251 3.4751L18.5751 6.33342C19.5751 6.91676 20.2002 7.99176 20.2002 9.1501V14.8501C20.2002 16.0084 19.5751 17.0834 18.5751 17.6667L13.6251 20.5251C13.1251 20.8167 12.5585 20.9584 12.0001 20.9584ZM12.0001 4.29175C11.6585 4.29175 11.3085 4.38342 11.0001 4.55842L6.05012 7.41675C5.43345 7.77508 5.05011 8.43343 5.05011 9.1501V14.8501C5.05011 15.5584 5.43345 16.2251 6.05012 16.5834L11.0001 19.4417C11.6168 19.8001 12.3835 19.8001 12.9918 19.4417L17.9418 16.5834C18.5585 16.2251 18.9418 15.5667 18.9418 14.8501V9.1501C18.9418 8.44176 18.5585 7.77508 17.9418 7.41675L12.9918 4.55842C12.6918 4.38342 12.3418 4.29175 12.0001 4.29175Z" fill="white"/>
</svg>
