<svg width="24" height="24" viewBox="0 0 24 24" fill="none" xmlns="http://www.w3.org/2000/svg">
<path fill-rule="evenodd" clip-rule="evenodd" d="M3 4.5C3 3.67157 3.67157 3 4.5 3H19.5C20.3284 3 21 3.67157 21 4.5V19.5C21 20.3284 20.3284 21 19.5 21H4.5C3.67157 21 3 20.3284 3 19.5V4.5ZM19.5 4.5H4.5V19.5H19.5V4.5Z" fill="#999999"/>
<path fill-rule="evenodd" clip-rule="evenodd" d="M12.0004 7.5C12.1993 7.5 12.3901 7.57902 12.5307 7.71967L15.7088 10.8978C16.0017 11.1907 16.0017 11.6656 15.7088 11.9585C15.416 12.2513 14.9411 12.2513 14.6482 11.9585L12.0004 9.31066L9.3526 11.9585C9.0597 12.2513 8.58483 12.2513 8.29194 11.9585C7.99904 11.6656 7.99904 11.1907 8.29194 10.8978L11.4701 7.71967C11.6107 7.57902 11.8015 7.5 12.0004 7.5Z" fill="#999999"/>
<path fill-rule="evenodd" clip-rule="evenodd" d="M12 7.5C12.4142 7.5 12.75 7.83579 12.75 8.25V15.75C12.75 16.1642 12.4142 16.5 12 16.5C11.5858 16.5 11.25 16.1642 11.25 15.75V8.25C11.25 7.83579 11.5858 7.5 12 7.5Z" fill="#999999"/>
</svg>
